<svg width="37" height="40" viewBox="0 0 37 40" fill="none" xmlns="http://www.w3.org/2000/svg">
<path d="M10.4203 8.66142C19.5198 -0.373457 30.571 -2.72588 34.9786 3.43954C39.3991 9.60497 35.5215 22.0522 26.422 31.1C17.3095 40.1995 6.27123 42.5519 1.78611 36.3218C-2.56976 30.0918 1.32079 17.6963 10.4203 8.66142Z" fill="#F06321"/>
<path d="M34.9786 3.43936C36.5167 5.71423 36.9949 8.72586 36.6589 12.1382C35.4568 16.7655 32.5098 21.7159 28.0893 26.0072C19.9205 33.9821 10.1488 35.9856 6.06439 30.5569C2.12214 25.1411 5.46982 14.2838 13.4319 6.38636C14.4401 5.4428 15.4353 4.5768 16.4435 3.84005C24.0049 -0.981137 31.5016 -1.38182 34.9786 3.43936Z" fill="#AE282E"/>
<path d="M27.9598 4.84814V5.04202C27.8822 6.17946 27.223 7.58833 26.008 8.7904C24.2114 10.5353 21.7944 11.2074 20.7862 10.1993C19.6487 9.12646 20.3209 6.78695 22.1304 4.91277C24.0046 3.10321 26.4217 2.49571 27.4169 3.56852C27.753 3.90458 27.9598 4.30527 27.9598 4.84814ZM20.993 35.5848C16.7147 38.7903 12.2942 40.406 8.00293 39.7339C9.81249 39.7985 11.286 37.7951 12.501 35.1195C13.703 32.3664 14.3752 29.8201 14.9697 27.4159C15.8357 23.59 15.9133 20.9144 15.435 20.3199C14.6983 19.3763 13.0955 19.5831 11.2214 20.6559C10.2778 21.1859 9.07574 20.8498 10.4846 19.1049C11.9581 17.3729 17.6453 13.2109 19.6487 12.5517C21.9365 11.9442 24.4699 12.8102 23.6039 15.2919C22.9964 17.1014 15.099 37.7304 20.993 35.5848Z" fill="white"/>
</svg>
